<!--Scalable Vector Graphic-->
<svg xmlns="http://www.w3.org/2000/svg" 
     
     viewBox="0 0 25 20">
	<path fill-rule="evenodd" fill="#c6c9ce" d="M24.83 11.96c-.15.58-.6.9-1.08.8-.5-.11-.78-.61-.62-1.23.23-.94.24-1.88.03-2.82-.57-2.53-2.6-4.54-5.18-4.69-2.97-.17-5.95-.04-9.01-.04 0 .42 0 .86-.01 1.3-.01.73-.31.9-.93.52-1.15-.7-2.29-1.41-3.43-2.13-.68-.42-.68-.79-.02-1.21C5.85 1.63 7.13.82 8.4 0h.4c.09.69.19 1.39.29 2.12h.51c2.48 0 4.97-.02 7.45 0 3.57.02 6.46 2.03 7.62 5.3.19.54.29 1.12.43 1.78v1.6c-.09.39-.17.78-.27 1.16zM7.61 16.08c3.03.05 6.06.01 9.17.01 0-.5-.01-1 .01-1.49.01-.61.3-.77.83-.45 1.23.74 2.45 1.49 3.66 2.25.53.32.53.68 0 1.02-1.32.87-2.65 1.72-3.98 2.58h-.2c-.11-.23-.26-.44-.3-.68-.06-.31-.04-.64-.01-.95.04-.42-.12-.53-.53-.53-2.71.02-5.43 0-8.14.01-4.09.03-7.07-2.63-7.9-5.99-.08-.32-.15-.64-.22-.96V9.1c.24-.81.47-1.62.74-2.42.11-.32.31-.62.5-.92.28-.43.77-.56 1.17-.32.43.26.55.74.35 1.21-.31.73-.7 1.45-.87 2.21-.78 3.59 2.06 7.17 5.72 7.22z"></path>
</svg>
