<!--Scalable Vector Graphic-->
<svg xmlns="http://www.w3.org/2000/svg"  
     viewBox="0 0 25 20">
	<path fill-rule="evenodd" fill="#c6c9ce" d="m 20.3 7.28 c -0.84 0.56 -1.68 0.14 -1.82 -0.84 v -1.12 h -3.22 c -0.14 0 -0.42 0.28 -0.42 0.56 c -2.1 3.78 -4.2 7.7 -6.16 11.48 c -0.7 1.4 -1.68 2.1 -3.22 1.96 h -3.5 c -1.12 0 -1.82 -0.7 -1.68 -1.54 c 0 -0.84 0.7 -1.54 1.68 -1.54 h 3.22 c 0.56 0 0.7 -0.14 0.98 -0.56 c 1.96 -3.92 4.06 -7.7 6.16 -11.48 c 0.7 -1.26 1.68 -1.96 3.22 -1.96 c 0.98 0.14 2.1 0 3.22 0 v -0.98 c 0 -0.98 0.98 -1.54 1.82 -0.98 c 1.12 0.84 2.24 1.82 3.36 2.66 c 0.56 0.42 0.56 1.12 0 1.68 c -1.12 0.98 -2.24 1.82 -3.36 2.66 z m -11.34 0.84 c -0.7 0.28 -1.4 0 -1.82 -0.56 c -0.42 -0.7 -0.84 -1.4 -1.12 -2.1 c -0.14 -0.42 -0.42 -0.56 -0.84 -0.56 h -3.36 c -0.7 0 -1.26 -0.42 -1.54 -1.12 c -0.28 -0.56 0 -1.12 0.42 -1.54 c 0.28 -0.28 0.7 -0.42 0.98 -0.42 h 4.76 c 0.7 0 1.4 0.42 1.68 0.98 c 0.56 1.12 1.26 2.1 1.82 3.22 c 0.14 0.14 0.14 0.42 0.14 0.56 c 0 0.7 -0.56 1.4 -1.12 1.54 z m 2.94 5.04 c 0.84 -0.42 1.82 -0.14 2.24 0.84 c 0.56 1.68 1.54 2.1 3.22 1.82 h 1.26 v -1.12 c 0 -0.98 0.98 -1.54 1.82 -0.84 c 1.12 0.84 2.24 1.68 3.36 2.66 c 0.56 0.56 0.56 1.26 0 1.68 c -1.12 0.98 -2.24 1.82 -3.36 2.66 c -0.7 0.56 -1.68 0.14 -1.82 -0.84 v -1.12 h -3.36 c -1.26 0 -2.24 -0.56 -2.8 -1.68 c -0.28 -0.56 -0.7 -1.26 -0.98 -1.82 c -0.42 -0.98 -0.28 -1.82 0.56 -2.24 z"></path>
</svg>
